<svg id="Layer_1" data-name="Layer 1" xmlns="http://www.w3.org/2000/svg" viewBox="0 0 79.85 57.39"><defs><style>.cls-1{fill:#998c7e;}</style></defs><title>logo-icon</title><path class="cls-1" d="M31.13,43.46a4.45,4.45,0,0,0,.43-2.21c-0.11-.69-1.4-0.6-1.24.21A16.2,16.2,0,0,0,31.13,43.46ZM73,48.11a1.24,1.24,0,0,0-.49-0.83C71.51,48.11,71.83,48.93,73,48.11Zm-43.51-38c-0.16,0-.55.83-1,1.23a2.41,2.41,0,0,1,1.5.29,49.76,49.76,0,0,0-5.39,3.49,34.26,34.26,0,0,1-5.07,5.82,0.81,0.81,0,0,0,.65.45,1.59,1.59,0,0,1,1.29,1.76l2.48,0.59a2,2,0,0,1,2.62-.57,6.75,6.75,0,0,0,3,1c2-.06,2.26.57,2.48,0.94a15.23,15.23,0,0,1,2.69-.64c0.32-1.7,2.56-2.22,3.91-1.75-0.29-1.08,1-1.43,1.72-1.75l-0.18-.73c0.68-.3,1.41-0.62,1.62-0.75a2.34,2.34,0,0,0-.27-1.16,6,6,0,0,1-1.53,1.48,0.22,0.22,0,0,1-.29-0.24,1.17,1.17,0,0,0,.24-0.7A8.93,8.93,0,0,1,38.39,20,0.37,0.37,0,0,1,38,19.63a2.88,2.88,0,0,0,.78-1.49c-4,3.78-7.1-1.35-4.15-4.29a7.66,7.66,0,0,1,3.56-8.3,10.32,10.32,0,0,1,3.66-4.42c2.58-2.38,7.55-.81,5.66,2.75a8.16,8.16,0,0,1,4.25-.05V4.91c-1.18,0-2.37,1.08-2.91,1.51a2,2,0,0,1,1.07,2.21A1.63,1.63,0,0,0,50,10c0.27,0.32.92,0,1.29-.65a2.33,2.33,0,0,1,1,.49,1.44,1.44,0,0,1-.92,1.61c3.06,2.19.85,7.81-3.67,6.36l-0.25.83c0.84,0,2.46.35,2.78,0.4a1.79,1.79,0,0,0,.43.91,4.7,4.7,0,0,1,1.72-.75A12.05,12.05,0,0,1,52,21.08c5-.73,13.1,2.32,12,5l2.8-1.45c1.56-.7,2.58,2.26,2.53,5.23,0,2.72,2.71,8,2.76,8.11a6.62,6.62,0,0,1-1.77-.42,4.23,4.23,0,0,0,.64,1.59,4.53,4.53,0,0,1-1.67-.51,3.88,3.88,0,0,1,.41,1.23,5.69,5.69,0,0,1-2-1.24,6.27,6.27,0,0,1,.53,1.54c-0.37-.69-3.81-2-5.16-2.22a1.89,1.89,0,0,1-2.32,1.14,11,11,0,0,1,1.51,4.11c1.24-.87,2.81-0.57,3.56-0.57a2.8,2.8,0,0,0,1.89-.75c1.44-1.33,1.89,0,2.11.68h0.93c0-2.39,3.57-1.91,4.65-.78,0.33-.38,2.54-0.38,2.54-0.38A1.83,1.83,0,0,1,79,42.51a11.24,11.24,0,0,1,.75,6.2A7.09,7.09,0,0,0,78,49c1.77,3.88,1.33,8-1.81,8.43H68a0.24,0.24,0,0,1-.21-0.27V55.45A1.06,1.06,0,0,1,68.54,55c-3.29-3.75,1.67-6.1,5.1-4.21a3.55,3.55,0,0,0-.29-1.7c-1.1,1.18-3.75,0-1.94-2.24a1.16,1.16,0,0,0-.81,0,3.18,3.18,0,0,1-.81,2.58c-1-.54-4.71-0.29-7,0.62s-3.71,1.07-5-1a12.45,12.45,0,0,0-3.5-4.36,21.64,21.64,0,0,1-4.47-4.18c-2.06,1.4-6.8,1.53-8.44-.84a1.77,1.77,0,0,0-1.18.38c0.54,3.13-.18,5.72-1.81,7.39-0.16,1.46-2.39,2.07-3.53,1.37a2.68,2.68,0,0,1-2.83,2.72,2.61,2.61,0,0,1-1.94,1.16c-1.88-.75-3.23-2.78-3.93-4.67a4.27,4.27,0,0,0,.7-1c-3.55,0-7-3.88-7.44-7.49,0.14-1.69.71-2.54,2-3,2.07-4.66,9.32-2.72,8.57,3.8,0.72-.82,1.52-0.91,2.1.3a1.08,1.08,0,0,1,1.13-.89c-0.59-1.94.29-3.64,1.32-3.85-1.35-4.9,3.1-5.39,6.55-3.29a7.92,7.92,0,0,1-.43-3.88,18,18,0,0,0-7.06,2c-2.74,1.42-2.86.79-4.21-.27A7.65,7.65,0,0,0,25.67,29c-2.14-.3-3.5-0.7-3.94-2.1l-2.1-.54a5.17,5.17,0,0,1-3,1.08c-0.33,1.83.93,9.23,0.93,9.31A3,3,0,0,0,16.45,36a8.28,8.28,0,0,1,0,2.06,3.88,3.88,0,0,0-1.7-1.2,13.73,13.73,0,0,1-.24,2c-0.55-1.29-2.78-3.62-5.37-3.62-3.85-.51-7.5-2.36-9.11-4.94,0.33-4.48,6.36-11.55,6.79-14A16.36,16.36,0,0,1,8,11.88a11.43,11.43,0,0,0,.89-2C9.9,9,13,8.33,15.23,8.7a29.93,29.93,0,0,0,5.29.22,59.35,59.35,0,0,1,7.05-1.31,7.48,7.48,0,0,0-.62,1.63,9,9,0,0,1,1.35-.33,4.85,4.85,0,0,0-.48,1.39A6.59,6.59,0,0,1,29.45,10.09Z"/></svg>